<svg xmlns="http://www.w3.org/2000/svg" viewBox="0 0 258.45 129.73"><defs><style>.cls-1,.cls-3{fill:#ff7129;}.cls-2,.cls-4,.cls-6{fill:#2e2f29;}.cls-3,.cls-4,.cls-6{font-size:28px;}.cls-3,.cls-6{font-family:MyriadPro-BoldCond, Myriad Pro;font-weight:700;}.cls-4{font-family:MyriadPro-Cond, Myriad Pro;letter-spacing:0.01em;}.cls-5{letter-spacing:0em;}</style></defs><title>Asset 2</title><g id="Layer_2" data-name="Layer 2"><g id="Layer_1-2" data-name="Layer 1"><path class="cls-1" d="M93.59,36.94,93,59.17,0,58,5.59,45.77C8.1,40.29,16.44,35.93,24.22,36Z"/><path class="cls-2" d="M70.31,36.85,94,37.13l-4.17,92.6-12.09-5.79c-5.44-2.6-9.66-11-9.44-18.78Z"/><path class="cls-2" d="M57,92.88l-23.71-.29L37.49,0,49.58,5.78c5.44,2.6,9.66,11,9.44,18.79Z"/><path class="cls-1" d="M33.19,92.53l1.13-22.22,92.46,1.21L121.19,83.7c-2.51,5.48-10.85,9.84-18.63,9.74Z"/><text class="cls-3" transform="translate(136.54 79.7)">PRO</text><text class="cls-4" transform="translate(179.04 79.7)">R<tspan class="cls-5" x="11.62" y="0">AK</tspan></text><text class="cls-6" transform="translate(218.36 79.7)">ABD</text></g></g></svg>